<svg version="1.1" id="Шар_1" xmlns="http://www.w3.org/2000/svg" xmlns:xlink="http://www.w3.org/1999/xlink" x="0px" y="0px" viewBox="0 0 110 75" xml:space="preserve"><path class="st0" d="M61.5,1c0.2,0,0.3,0.1,0.5,0.1C70.4,2.8,78.2,7.3,83.6,14c0.1,0.2,0.3,0.3,0.4,0.5c1.2,1.5,2.2,3.1,3.2,4.7
	c0.1,0.1,0.1,0.2,0.2,0.3c0.3,0.5,0.5,0.9,0.7,1.4c0.2,0.5,0.3,0.8,0.7,1.2c0.5,0.1,1,0.1,1.5,0.1c0.7,0,0.9,0.1,1.3,0.6
	c0.5,0.6,0.5,1.1,0.5,1.9c0,0.2,0,0.2,0,0.3c0,0.4,0,0.8,0,1.1c0,0.3,0,0.5,0,0.8c0,0.7,0,1.5,0,2.2c0,0.6,0,1.2,0,1.9
	c0,1.5,0,2.9,0,4.4c0,1.5,0,3,0,4.5c0,1.3,0,2.6,0,3.9c0,0.8,0,1.6,0,2.3c0,0.7,0,1.5,0,2.2c0,0.3,0,0.5,0,0.8c0,0.4,0,0.7,0,1.1
	c0,0.1,0,0.2,0,0.3c0,0.7-0.2,1.1-0.7,1.7c-0.4,0.4-0.6,0.4-1.2,0.4c-0.2,0-0.3,0-0.5-0.1c-0.5,0-0.5,0-1.1,0.2
	c-0.6,0.7-0.9,1.7-1.3,2.5c-1,2.4-2.9,4.6-4.6,6.6c-0.1,0.1-0.1,0.2-0.2,0.2c-1.3,1.4-2.6,2.8-4.1,4c-0.2,0.1-0.3,0.3-0.5,0.4
	c-1.1,0.9-2.3,1.7-3.6,2.5c-0.2,0.1-0.3,0.2-0.5,0.3c-3.9,2.3-8,3.8-12.4,4.6c-0.1,0-0.3,0.1-0.4,0.1c-4,0.8-8.6,0.7-12.6-0.1
	c-0.2,0-0.3-0.1-0.5-0.1c-8.4-1.7-16.2-6.1-21.6-12.9c-0.1-0.2-0.3-0.3-0.4-0.5c-1.2-1.5-2.2-3.1-3.2-4.7c-0.1-0.1-0.1-0.2-0.2-0.3
	c-0.3-0.5-0.5-0.9-0.7-1.4c-0.2-0.5-0.3-0.8-0.7-1.2c-0.5-0.1-1-0.1-1.5-0.1c-0.7,0-0.9-0.1-1.3-0.6c-0.5-0.6-0.5-1.1-0.5-1.9
	c0-0.2,0-0.2,0-0.3c0-0.4,0-0.8,0-1.1c0-0.3,0-0.5,0-0.8c0-0.7,0-1.5,0-2.2c0-0.6,0-1.2,0-1.9c0-1.5,0-2.9,0-4.4c0-1.5,0-3,0-4.5
	c0-1.3,0-2.6,0-3.9c0-0.8,0-1.6,0-2.3c0-0.7,0-1.5,0-2.2c0-0.3,0-0.5,0-0.8c0-0.4,0-0.7,0-1.1c0-0.1,0-0.2,0-0.3
	c0-0.7,0.2-1.1,0.7-1.7c0.4-0.4,0.6-0.4,1.2-0.4c0.2,0,0.3,0,0.5,0.1c0.5,0,0.5,0,1.1-0.2c0.6-0.7,0.9-1.7,1.3-2.5
	c1-2.4,2.9-4.6,4.6-6.6c0.1-0.1,0.1-0.1,0.2-0.2c1.3-1.4,2.6-2.8,4.1-4c0.2-0.1,0.3-0.3,0.5-0.4c1.1-0.9,2.3-1.7,3.6-2.5
	c0.2-0.1,0.2-0.1,0.5-0.3c3.9-2.3,8-3.8,12.4-4.6c0.1,0,0.3-0.1,0.4-0.1C52.9,0.2,57.5,0.2,61.5,1z M57.2,5.3c0,2.7,0,5.3,0,8.1
	c2,0,2,0,3.9-0.1c0.2,0,0.2,0,0.3,0c0.3,0,0.6-0.1,1-0.1c0.2,0,0.4,0,0.7-0.1c0.5-0.1,1.1-0.1,1.6-0.2c-1.2-3-3.7-5.9-6.6-7.4
	C57.7,5.5,57.5,5.4,57.2,5.3z M48.7,8c-1.1,1.2-2,2.5-2.9,3.9c-0.1,0.1-0.2,0.3-0.3,0.4c-0.2,0.3-0.2,0.3-0.2,0.6
	c0.7,0.1,1.3,0.1,2,0.2c0.2,0,0.4,0,0.7,0.1c0.3,0,0.6,0.1,1,0.1c0.1,0,0.1,0,0.3,0c1.2,0.1,2.4,0.1,3.6,0.1c0-2.7,0-5.3,0-8.1
	C51.4,5.3,49.7,7.1,48.7,8z M66.4,7.1c0.3,0.6,0.6,1.1,0.9,1.6c0.7,1.2,1.4,2.4,2.1,3.6c1.1-0.1,2.1-0.3,3.2-0.6
	c0.2,0,0.2,0,0.3-0.1c0.6-0.1,0.6-0.1,1.1-0.5C71.8,9.5,69.1,7.7,66.4,7.1z M43.5,7.1c-2.7,1.1-5.2,2.3-7.5,4
	c0.6,0.6,1.5,0.6,2.2,0.7c0.2,0,0.4,0.1,0.5,0.1c0.2,0,0.3,0.1,0.5,0.1c0.2,0.1,0.2,0.1,0.5,0.1c0.4,0.1,0.6,0.1,1-0.1
	c0.2-0.2,0.2-0.2,0.3-0.5c0.1-0.1,0.1-0.2,0.2-0.3c0.1-0.1,0.1-0.2,0.2-0.4c0.6-1.3,1.4-2.4,2.2-3.5C43.5,7.2,43.5,7.2,43.5,7.1z
	 M31.8,14.7c-2.2,2.3-3.9,4.7-5.3,7.5c3.5,0,7,0,10.7,0c0.3-1.1,0.7-2.2,1-3.4c0-0.1,0.1-0.2,0.1-0.4c0.2-0.7,0.4-1.4,0.6-2
	c-0.1,0-0.2-0.1-0.4-0.1C36.2,15.8,34,15.3,31.8,14.7z M77.4,14.9c-2.1,0.6-4.1,1.1-6.2,1.5c0.2,0.6,0.4,1.2,0.5,1.8
	c0.1,0.2,0.1,0.3,0.2,0.5c0.1,0.3,0.1,0.3,0.2,0.5c0.1,0.2,0.1,0.2,0.1,0.5c0.2,0.8,0.5,1.6,0.7,2.4c3.5,0,7,0,10.7,0
	c-0.8-1.7-0.8-1.7-1.9-3.3c-0.1-0.1-0.1-0.2-0.2-0.3c-1-1.4-2.1-2.7-3.3-3.9C77.9,14.7,77.7,14.8,77.4,14.9z M43.3,17.2
	c-0.7,1.7-1.1,3.3-1.6,5c3.7,0,7.3,0,11.1,0c0-1.4,0-2.9,0-4.3c-0.3,0-0.6,0-1,0C49,17.7,46.2,17.5,43.3,17.2z M65.8,17.2
	c-2.9,0.3-5.7,0.5-8.6,0.6c0,1.4,0,2.9,0,4.3c3.7,0,7.3,0,11.1,0c-0.7-2.6-0.7-2.6-1.6-5C66.4,17.2,66.1,17.2,65.8,17.2z M22.4,26.5
	c0,7.2,0,14.5,0,21.9c21.5,0,43,0,65.2,0c0-7.2,0-14.5,0-21.9C66.1,26.5,44.6,26.5,22.4,26.5z M26.4,52.8c0.8,1.7,0.8,1.7,1.9,3.3
	c0.1,0.1,0.1,0.2,0.2,0.3c0.8,1.1,1.7,2.2,2.6,3.2c0.2,0.2,0.2,0.2,0.3,0.4c0.1,0.1,0.2,0.2,0.3,0.3c0.2,0,0.2,0,0.4-0.1
	c4.5-1.2,4.5-1.2,6.7-1.6c-0.2-0.6-0.4-1.2-0.5-1.8c-0.1-0.2-0.1-0.3-0.2-0.5c-0.1-0.2-0.1-0.3-0.2-0.5c-0.1-0.2-0.1-0.2-0.1-0.5
	c-0.2-0.8-0.5-1.6-0.7-2.4C33.6,52.8,30.1,52.8,26.4,52.8z M41.7,52.8c0.7,2.6,0.7,2.6,1.6,5c0.3,0,0.5-0.1,0.8-0.1
	c2.9-0.3,5.8-0.5,8.8-0.6c0-1.4,0-2.9,0-4.3C49.2,52.8,45.5,52.8,41.7,52.8z M57.2,52.8c0,1.4,0,2.9,0,4.3c0.3,0,0.6,0,1,0
	c2.9,0.1,5.7,0.4,8.5,0.7c0.7-1.7,1.1-3.3,1.6-5C64.6,52.8,60.9,52.8,57.2,52.8z M72.9,52.8c-0.3,1.1-0.7,2.2-1,3.4
	c0,0.1-0.1,0.2-0.1,0.4c-0.2,0.7-0.4,1.4-0.6,2c0.2,0,0.2,0,0.4,0.1c2.2,0.5,4.5,1,6.7,1.6c2.2-2.3,3.9-4.7,5.3-7.5
	C80,52.8,76.5,52.8,72.9,52.8z M48.9,61.7c-0.1,0-0.2,0-0.3,0c-0.3,0-0.6,0.1-1,0.1c-0.2,0-0.4,0-0.7,0.1c-0.5,0.1-1.1,0.1-1.6,0.2
	c1.2,3,3.7,5.9,6.6,7.4c0.3,0.1,0.6,0.2,0.9,0.3c0-2.7,0-5.3,0-8.1C50.9,61.6,50.9,61.6,48.9,61.7z M57.2,61.6c0,2.7,0,5.3,0,8.1
	c1.2-0.5,2-0.9,3-1.7c0.1-0.1,0.2-0.2,0.4-0.3c1.7-1.5,3-3.4,4.1-5.3c0-0.1,0-0.2,0-0.3c-0.7-0.1-1.3-0.1-2-0.2
	c-0.2,0-0.4,0-0.7-0.1c-0.3,0-0.6-0.1-1-0.1c-0.1,0-0.1,0-0.3,0C59.6,61.5,58.4,61.6,57.2,61.6z M69.4,62.7
	c-0.1,0.1-0.1,0.1-0.2,0.3c-1.9,3.4-1.9,3.4-2.9,4.6c0,0.1,0.1,0.2,0.1,0.3c2.7-1.1,5.2-2.3,7.5-4c-0.4-0.4-0.6-0.4-1.2-0.5
	c-0.2,0-0.3-0.1-0.5-0.1c-0.2,0-0.4-0.1-0.5-0.1c-0.2,0-0.4-0.1-0.5-0.1C70.4,62.8,70.4,62.8,69.4,62.7z M38.2,63.2
	c-0.3,0.1-0.3,0.1-0.5,0.1c-0.2,0-0.3,0.1-0.5,0.1c-0.2,0.1-0.2,0.1-0.5,0.1c-0.4,0.1-0.4,0.1-0.7,0.4c2.2,1.6,4.9,3.4,7.6,4
	c-0.3-0.6-0.6-1.1-0.9-1.6c-0.7-1.2-1.4-2.4-2.1-3.6C39.8,62.7,39,63,38.2,63.2z"></path><path class="st0" d="M46.3,30.9c0.1,0,0.3,0,0.4,0c0.6,0.1,0.9,0.2,1.3,0.6c0.3,0.5,0.6,1.1,0.9,1.6c0.1,0.2,0.1,0.2,0.2,0.4
	c0.1,0.3,0.3,0.6,0.4,0.9c0.1,0.3,0.3,0.6,0.4,0.8c0.1,0.2,0.1,0.2,0.2,0.4c0.1,0.1,0.1,0.2,0.2,0.3c0.1,0.3,0.1,0.3,0.1,0.6
	c0.1,0,0.2,0,0.3,0c0-0.1,0.1-0.2,0.1-0.4c0.3-0.8,0.7-1.6,1.1-2.4c0.1-0.2,0.2-0.3,0.2-0.5c0.1-0.2,0.1-0.2,0.2-0.5
	c0.1-0.2,0.1-0.2,0.2-0.4c0.4-0.6,0.8-1.2,1.5-1.4c0.3,0,0.3,0,0.7-0.1c0.1,0,0.2,0,0.4,0c0.6,0.1,1,0.3,1.4,0.6
	c0.4,0.5,0.6,1,0.9,1.6c0.1,0.2,0.1,0.2,0.2,0.4c0.1,0.3,0.3,0.6,0.4,0.9c0.3,0.5,0.5,1.1,0.8,1.6c0.1,0.3,0.1,0.3,0.1,0.6
	c0.1,0,0.2,0,0.3,0c0-0.1,0.1-0.2,0.1-0.4c0.3-0.8,0.7-1.6,1.1-2.4c0.1-0.2,0.2-0.3,0.2-0.5c0.1-0.2,0.1-0.2,0.2-0.5
	c0.1-0.1,0.1-0.3,0.2-0.4c0.4-0.6,0.8-1,1.4-1.4c0.8-0.1,1.5-0.1,2.2,0.2c0.6,0.5,0.8,1,0.9,1.8c0,1.1-0.5,2.1-1,3.1
	c-0.1,0.2-0.2,0.4-0.3,0.6c-0.2,0.4-0.4,0.8-0.6,1.2c-0.3,0.5-0.5,1-0.8,1.6c-0.2,0.4-0.4,0.8-0.6,1.2c-0.1,0.2-0.2,0.4-0.3,0.6
	c-0.1,0.3-0.3,0.5-0.4,0.8c-0.1,0.2-0.2,0.3-0.2,0.5c-0.4,0.6-0.9,1.2-1.6,1.4c-0.3,0-0.3,0-0.7,0.1c-0.1,0-0.2,0-0.4,0
	c-0.6-0.1-1-0.3-1.4-0.6c-0.4-0.5-0.6-1-0.9-1.6c-0.1-0.1-0.1-0.3-0.2-0.4c-0.1-0.3-0.3-0.6-0.4-0.9c-0.3-0.5-0.5-1.1-0.8-1.6
	c-0.1-0.3-0.1-0.3-0.1-0.6c-0.1,0-0.2,0-0.3,0c0,0.1-0.1,0.2-0.1,0.4c-0.3,0.8-0.7,1.6-1.1,2.4c-0.1,0.2-0.2,0.3-0.2,0.5
	c-0.1,0.2-0.2,0.3-0.2,0.5c-0.1,0.2-0.1,0.2-0.2,0.4c-0.4,0.6-0.8,1.2-1.5,1.4c-0.3,0-0.3,0-0.7,0.1c-0.1,0-0.2,0-0.4,0
	c-0.7-0.1-1.2-0.4-1.6-0.9c-0.2-0.3-0.4-0.7-0.5-1.1c-0.1-0.3-0.3-0.6-0.4-0.9c0-0.1-0.1-0.2-0.1-0.3c-0.3-0.7-0.7-1.3-1-2
	c-0.3-0.5-0.6-1.1-0.8-1.6c-0.1-0.3-0.3-0.5-0.4-0.8c-1.5-2.9-1.5-2.9-1.2-4.3C44.6,31.3,45.3,30.9,46.3,30.9z"></path><path class="st0" d="M81.8,35.3c0.7,0.3,1,0.6,1.3,1.3c0.1,0.8,0.1,1.5-0.2,2.2c-0.4,0.5-0.8,0.7-1.5,0.8c-0.9,0-1.5,0-2.2-0.6
	c-0.6-0.8-0.5-1.5-0.4-2.5C79.4,35.3,80.5,35.2,81.8,35.3z"></path><path class="st0" d="M73.2,35.3c0.7,0.3,1,0.6,1.3,1.3c0.1,0.8,0.1,1.5-0.2,2.2c-0.4,0.5-0.8,0.7-1.5,0.8c-0.9,0-1.5,0-2.2-0.6
	c-0.6-0.8-0.5-1.5-0.4-2.5C70.8,35.3,71.8,35.2,73.2,35.3z"></path><path class="st0" d="M38.6,35.3c0.7,0.3,1,0.6,1.3,1.3c0.1,0.8,0.1,1.5-0.2,2.2c-0.4,0.5-0.8,0.7-1.5,0.8c-0.9,0-1.5,0-2.2-0.6
	c-0.6-0.8-0.5-1.5-0.4-2.5C36.2,35.3,37.2,35.2,38.6,35.3z"></path><path class="st0" d="M29.9,35.3c0.7,0.3,1,0.6,1.3,1.3c0.1,0.8,0.1,1.5-0.2,2.2c-0.4,0.5-0.8,0.7-1.5,0.8c-0.9,0-1.5,0-2.2-0.6
	c-0.6-0.8-0.5-1.5-0.4-2.5C27.5,35.3,28.6,35.2,29.9,35.3z"></path></svg>